# xmcd CD database file
#
# Track frame offsets:
#	150
#	14267
#	23861
#	36843
#	46650
#	57697
#	72418
#	86470
#	100668
#	111789
#	123481
#	134488
#	148654
#	158591
#	179132
#	191975
#
# Disc length: 2706 seconds
#
# Revision: 0
# Processed by: cddbd v1.5.2PL0 Copyright (c) Steve Scherf et al.
# Submitted via: cdripper 1,0,39,0213
#
DISCID=e60a9010
DTITLE=Varouis - Country Legends - Kiss An Angel Good Morning
DYEAR=1900
DGENRE=Country
TTITLE0=01 Boxcar Willie - You Are My Sunshine
TTITLE1=02 Charley Pride - Kiss An Angel Good Morning
TTITLE2=03 Billie Jo Spears - Dallas
TTITLE3=04 Webb Pierce - In The Jailhouse Now
TTITLE4=05 Johnny Cash - I Love You Because
TTITLE5=06 Loretta Lynn - Coal Miner's Daughter
TTITLE6=07 Frankie Laine - Don't Fence Me In
TTITLE7=08 Jerry Lee Lewis - Cold Cold Heart
TTITLE8=09 Dolly Parton - It Wasn't God Who Made Honky Tonk Angels
TTITLE9=10 Jim Reeves - I Love You More
TTITLE10=11 Kenny Rogers and The First Edition - Ticket To Nowhere
TTITLE11=12 Rita Remington - Angel Of The Morning
TTITLE12=13 Jerry Wallace - King Of The Mountain
TTITLE13=14 Barbara Fairchild - Too Old For This Dress
TTITLE14=15 Willie Nelson - Any Old Arms Won't Do
TTITLE15=16 Patsy Cline - I Can't Forget
EXTD=
EXTT0=
EXTT1=
EXTT2=
EXTT3=
EXTT4=
EXTT5=
EXTT6=
EXTT7=
EXTT8=
EXTT9=
EXTT10=
EXTT11=
EXTT12=
EXTT13=
EXTT14=
EXTT15=
PLAYORDER=
